<?xml version="1.0" encoding="UTF-8" standalone="no"?><!DOCTYPE svg PUBLIC "-//W3C//DTD SVG 1.1//EN" "http://www.w3.org/Graphics/SVG/1.1/DTD/svg11.dtd"><svg width="100%" height="100%" viewBox="0 0 3875 1016" version="1.1" xmlns="http://www.w3.org/2000/svg" xmlns:xlink="http://www.w3.org/1999/xlink" xml:space="preserve" xmlns:serif="http://www.serif.com/" style="fill-rule:evenodd;clip-rule:evenodd;stroke-linecap:round;stroke-miterlimit:10;"><g><path d="M3347.86,779.096c0,0 -53.428,-263.064 317.015,-258.162c18.607,0.246 38.289,1.168 59.098,2.835c-5.595,16.166 -11.312,31.365 -17.149,45.65c-91.156,223.2 -210.905,223.15 -358.964,209.677Z" style="fill:none;fill-rule:nonzero;stroke:#000;stroke-width:29.57px;"/><path d="M3354.47,771.984c0,0 171.8,-191.252 356.982,-237.486" style="fill:none;fill-rule:nonzero;stroke:#000;stroke-width:32.52px;"/><path d="M3397.14,728.815c0,0 -4.479,-114.114 43.247,-153.269" style="fill:none;fill-rule:nonzero;stroke:#000;stroke-width:14.61px;"/><path d="M3390.63,735.045c0,0 136.526,16.062 231.368,-29.107" style="fill:none;fill-rule:nonzero;stroke:#000;stroke-width:14.61px;"/><path d="M3463.06,671.038c0,0 -9.22,-93.708 45.723,-125.788" style="fill:none;fill-rule:nonzero;stroke:#000;stroke-width:14.61px;"/><path d="M3452.96,679.473c0,0 122.48,10.115 206.587,-32.194" style="fill:none;fill-rule:nonzero;stroke:#000;stroke-width:14.61px;"/><path d="M3531.46,615.506c0,0 21.534,-72.524 59.568,-86.668" style="fill:none;fill-rule:nonzero;stroke:#000;stroke-width:14.61px;"/><path d="M3533.11,629.161c0,0 111.597,10.102 173.713,-59.741" style="fill:none;fill-rule:nonzero;stroke:#000;stroke-width:14.61px;"/><path d="M3320.94,603.155c0,0 -247.89,-102.982 -36.468,-407.211c10.619,-15.274 22.403,-31.066 35.435,-47.373c10.266,13.683 19.659,26.926 28.227,39.756c133.922,200.479 66.848,299.684 -27.194,414.828Z" style="fill:none;fill-rule:nonzero;stroke:#000;stroke-width:29.57px;"/><path d="M3318.74,593.704c0,0 -62.301,-249.421 3.046,-428.744" style="fill:none;fill-rule:nonzero;stroke:#000;stroke-width:32.52px;"/><path d="M3306.87,534.173c0,0 -97.069,-60.169 -102.805,-121.636" style="fill:none;fill-rule:nonzero;stroke:#000;stroke-width:14.61px;"/><path d="M3308.38,543.054c0,0 89.726,-104.14 105.397,-208.01" style="fill:none;fill-rule:nonzero;stroke:#000;stroke-width:14.61px;"/><path d="M3295.88,447.21c0,0 -82.802,-44.812 -78.641,-108.295" style="fill:none;fill-rule:nonzero;stroke:#000;stroke-width:14.61px;"/><path d="M3297.22,460.301c0,0 76.949,-95.828 88.967,-189.205" style="fill:none;fill-rule:nonzero;stroke:#000;stroke-width:14.61px;"/><path d="M3288.16,359.445c0,0 -48.042,-58.442 -38.466,-97.872" style="fill:none;fill-rule:nonzero;stroke:#000;stroke-width:14.61px;"/><path d="M3300.4,365.723c0,0 70.838,-86.822 47.736,-177.396" style="fill:none;fill-rule:nonzero;stroke:#000;stroke-width:14.61px;"/><path d="M3284.28,779.096c0,0 53.428,-263.064 -317.015,-258.162c-18.608,0.246 -38.289,1.168 -59.098,2.835c5.594,16.166 11.311,31.365 17.148,45.65c91.157,223.2 210.906,223.15 358.965,209.677Z" style="fill:none;fill-rule:nonzero;stroke:#000;stroke-width:29.57px;"/><path d="M3277.68,771.984c0,0 -171.801,-191.252 -356.983,-237.486" style="fill:none;fill-rule:nonzero;stroke:#000;stroke-width:32.52px;"/><path d="M3235,728.815c0,0 4.48,-114.114 -43.247,-153.269" style="fill:none;fill-rule:nonzero;stroke:#000;stroke-width:14.61px;"/><path d="M3241.52,735.045c0,0 -136.527,16.062 -231.368,-29.107" style="fill:none;fill-rule:nonzero;stroke:#000;stroke-width:14.61px;"/><path d="M3169.09,671.038c0,0 9.22,-93.708 -45.723,-125.788" style="fill:none;fill-rule:nonzero;stroke:#000;stroke-width:14.61px;"/><path d="M3179.19,679.473c0,0 -122.48,10.115 -206.586,-32.194" style="fill:none;fill-rule:nonzero;stroke:#000;stroke-width:14.61px;"/><path d="M3100.69,615.506c0,0 -21.533,-72.524 -59.567,-86.668" style="fill:none;fill-rule:nonzero;stroke:#000;stroke-width:14.61px;"/><path d="M3099.03,629.161c0,0 -111.596,10.102 -173.712,-59.741" style="fill:none;fill-rule:nonzero;stroke:#000;stroke-width:14.61px;"/></g><path d="M320.856,694.668c-2.702,-1.92 -10.245,4.055 -22.628,17.925c-20.49,22.832 -46.665,43.104 -78.526,60.815c-31.86,17.711 -61.413,26.567 -88.658,26.567c-20.264,0 -36.138,-6.029 -47.621,-18.085c-11.484,-12.056 -17.225,-28.754 -17.225,-50.092c0,-33.075 13.172,-69.938 39.516,-110.588c26.344,-40.65 63.214,-76.126 110.611,-106.427c47.396,-30.3 88.883,-45.451 124.458,-45.451c18.689,0 35.126,5.121 49.311,15.364c3.377,2.561 6.304,4.694 8.781,6.402c4.053,2.774 7.881,8.375 11.483,16.804c3.603,8.428 5.404,15.204 5.404,20.325c0,3.201 -1.238,8.108 -3.715,14.723c-13.735,35.423 -23.079,64.763 -28.033,88.022c-4.953,23.26 -10.357,62.416 -16.211,117.47c-5.404,49.505 -11.258,87.595 -17.563,114.268c-6.304,26.673 -17.675,52.493 -34.112,77.459c-16.437,24.967 -36.139,43.691 -59.105,56.175c-22.967,12.483 -46.609,18.724 -70.926,18.724c-42.106,0 -83.648,-13.763 -124.628,-41.29c-40.979,-27.527 -61.469,-49.612 -61.469,-66.257c0,-10.456 4.166,-15.684 12.497,-15.684c4.052,0 16.099,6.295 36.138,18.885c52.913,33.502 100.535,50.253 142.866,50.253c36.926,0 65.015,-18.672 84.267,-56.014c19.251,-37.343 32.367,-93.144 39.347,-167.402c1.576,-16.858 3.49,-31.154 5.741,-42.891Zm-0.675,-175.724c-19.139,0 -43.062,9.389 -71.771,28.167c-28.708,18.779 -56.572,46.305 -83.591,82.581c-27.02,36.276 -40.529,66.683 -40.529,91.223c0,8.322 2.758,14.884 8.274,19.685c5.517,4.801 11.652,7.202 18.407,7.202c20.04,0 46.215,-9.816 78.526,-29.448c32.311,-19.631 60.118,-46.892 83.422,-81.78c23.305,-34.889 34.957,-62.256 34.957,-82.101c0,-23.686 -9.232,-35.529 -27.695,-35.529Z" style="fill-rule:nonzero;"/><path d="M665.395,694.028c-31.522,40.117 -62.707,70.204 -93.555,90.263c-30.847,20.058 -59.105,30.087 -84.773,30.087c-17.338,0 -32.311,-6.935 -44.92,-20.805c-12.609,-13.87 -18.914,-31.688 -18.914,-53.453c0,-56.121 26.457,-116.563 79.37,-181.326c52.913,-64.762 105.489,-97.144 157.726,-97.144c18.914,0 32.986,10.243 42.218,30.728c2.927,6.828 7.543,10.242 13.848,10.242c18.013,0 27.019,6.615 27.019,19.845c0,6.615 -1.126,15.684 -3.377,27.207c-12.159,62.949 -18.239,107.334 -18.239,133.153c0,51.64 10.358,82.581 31.073,92.823c9.907,5.122 14.861,11.417 14.861,18.885c0,6.615 -4.841,13.283 -14.523,20.005c-9.682,6.722 -19.027,10.083 -28.033,10.083c-17.338,0 -31.635,-11.31 -42.894,-33.929c-11.258,-22.619 -16.887,-54.84 -16.887,-96.664Zm-20.602,-180.205c-29.721,0 -64.284,26.407 -103.687,79.22c-39.404,52.813 -59.105,96.611 -59.105,131.393c0,24.539 8.556,36.809 25.668,36.809c24.768,0 59.105,-23.686 103.012,-71.058c43.907,-47.372 65.86,-90.903 65.86,-130.592c0,-30.515 -10.583,-45.772 -31.748,-45.772Z" style="fill-rule:nonzero;"/><path d="M870.446,683.465c2.252,-3.84 4.954,-9.175 8.106,-16.004c15.311,-33.288 29.384,-59.374 42.218,-78.259c12.834,-18.885 26.963,-36.969 42.387,-54.254c15.423,-17.284 29.496,-30.407 42.218,-39.369c12.721,-8.963 24.261,-15.204 34.618,-18.725c10.358,-3.521 20.378,-5.281 30.06,-5.281c19.589,0 35.575,5.601 47.959,16.804c12.384,11.203 18.576,24.273 18.576,39.21c0,6.615 -2.195,12.589 -6.586,17.924c-4.391,5.335 -11.089,8.002 -20.096,8.002c-9.456,0 -18.125,-3.948 -26.006,-11.843c-8.106,-7.895 -16.549,-11.843 -25.331,-11.843c-23.417,0 -55.84,26.887 -97.27,80.66c-41.43,53.774 -66.648,112.988 -75.654,177.645c-2.252,16.644 -6.53,27.633 -12.835,32.968c-6.304,5.334 -15.198,8.002 -26.681,8.002c-11.033,0 -19.027,-7.789 -23.98,-23.366c-4.954,-15.577 -7.431,-41.824 -7.431,-78.74c0,-10.029 0.563,-32.114 1.689,-66.256c1.351,-40.33 4.053,-72.872 8.106,-97.625c0.676,-4.054 1.801,-13.55 3.377,-28.487c1.577,-16.43 3.547,-27.847 5.911,-34.248c2.364,-6.402 7.205,-12.377 14.523,-17.925c7.318,-5.548 15.255,-8.322 23.811,-8.322c8.331,0 14.579,2.508 18.745,7.522c4.165,5.015 6.248,10.403 6.248,16.164c0,8.322 -2.252,20.059 -6.755,35.209c-5.179,16.858 -8.218,28.487 -9.119,34.889c-0.676,7.255 -1.914,14.83 -3.715,22.725c-2.252,9.176 -4.503,33.289 -6.755,72.338l-0.338,11.843l0,8.642Z" style="fill-rule:nonzero;"/><path d="M1355.15,678.024c-30.172,45.878 -62.145,81.247 -95.919,106.107c-33.775,24.859 -64.847,37.289 -93.218,37.289c-21.84,0 -39.122,-7.949 -51.843,-23.846c-12.722,-15.897 -19.083,-37.076 -19.083,-63.536c0,-53.987 23.136,-109.361 69.406,-166.121c46.271,-56.761 96.201,-85.142 149.79,-85.142c23.417,0 45.145,9.496 65.184,28.488l47.284,-209.333c3.378,-14.297 9.626,-23.899 18.745,-28.807c9.119,-4.908 16.268,-7.362 21.447,-7.362c15.761,0 23.642,13.23 23.642,39.69c0,4.695 -5.179,22.192 -15.536,52.493c-16.437,46.945 -32.03,104.613 -46.778,173.003c-14.748,68.391 -22.122,123.285 -22.122,164.682c0,42.677 9.795,64.015 29.384,64.015c12.609,0 25.668,-3.947 39.178,-11.842c5.629,-3.841 10.92,-5.762 15.874,-5.762c7.205,0 10.808,4.481 10.808,13.443c0,10.883 -10.076,23.473 -30.228,37.77c-20.152,14.297 -40.811,21.445 -61.976,21.445c-37.152,0 -55.728,-33.928 -55.728,-101.785c0,-11.523 0.563,-23.153 1.689,-34.889Zm-44.245,-149.797c-36.476,0 -72.615,23.419 -108.415,70.257c-35.801,46.839 -53.702,90.103 -53.702,129.793c0,26.673 9.345,40.01 28.033,40.01c17.563,0 38.897,-8.749 64.003,-26.247c25.105,-17.498 50.943,-45.398 77.512,-83.701c26.569,-38.303 39.853,-67.056 39.853,-86.261c0,-9.389 -4.559,-19.045 -13.678,-28.968c-9.119,-9.922 -20.321,-14.883 -33.606,-14.883Z" style="fill-rule:nonzero;"/><path d="M1817.9,702.03c0,21.766 -20.321,48.012 -60.963,78.74c-40.642,30.727 -82.578,46.091 -125.809,46.091c-36.251,0 -64.228,-10.136 -83.93,-30.407c-19.701,-20.272 -29.552,-48.546 -29.552,-84.821c0,-61.029 21.728,-119.07 65.184,-174.124c43.457,-55.054 90.966,-82.58 142.528,-82.58c16.887,0 30.679,5.227 41.374,15.683c10.695,10.456 16.043,23.046 16.043,37.77c0,32.861 -17,64.336 -51,94.423c-33.999,30.088 -79.482,59.642 -136.448,88.662c-11.709,5.762 -17.563,13.23 -17.563,22.406c0,17.711 5.404,31.901 16.212,42.571c10.808,10.669 26.794,16.004 47.96,16.004c48.409,0 97.833,-25.393 148.269,-76.179c7.43,-7.042 13.059,-10.563 16.887,-10.563c7.205,0 10.808,5.441 10.808,16.324Zm-234.732,-49.932c95.469,-53.774 143.203,-96.985 143.203,-129.633c0,-12.803 -6.079,-19.204 -18.238,-19.204c-20.715,0 -44.075,14.403 -70.082,43.21c-26.006,28.808 -44.3,64.016 -54.883,105.627Z" style="fill-rule:nonzero;"/><path d="M2076.99,564.396c-11.709,0 -24.487,7.255 -38.334,21.765c-13.848,14.511 -34.957,47.052 -63.327,97.625c-37.377,67.856 -61.526,106.479 -72.446,115.868c-10.92,9.389 -19.983,14.084 -27.188,14.084c-26.57,0 -39.854,-12.163 -39.854,-36.489c0,-10.243 1.801,-24.753 5.404,-43.531c12.384,-64.443 18.576,-132.406 18.576,-203.891c0,-8.109 3.659,-17.124 10.976,-27.047c7.318,-9.922 14.242,-14.883 20.772,-14.883c11.708,0 20.039,3.414 24.993,10.242c4.953,6.829 7.43,20.592 7.43,41.291c0,21.552 -6.755,65.936 -20.265,133.153c-4.503,22.192 -6.755,36.275 -6.755,42.25c0,3.414 0.901,5.122 2.702,5.122c3.378,0 19.027,-25.5 46.947,-76.499c28.145,-51.853 52.8,-88.343 73.966,-109.468c21.165,-21.125 44.469,-31.688 69.912,-31.688c20.265,0 36.758,8.749 49.48,26.247c12.722,17.498 22.01,49.399 27.864,95.704c6.304,52.706 11.99,85.514 17.056,98.424c5.066,12.91 13.116,19.365 24.148,19.365c6.98,0 15.762,-2.347 26.344,-7.042c1.802,-0.853 3.153,-1.28 4.053,-1.28c9.682,0 14.523,5.335 14.523,16.004c0,9.389 -6.642,19.365 -19.927,29.927c-13.284,10.563 -29.271,15.844 -47.959,15.844c-19.139,0 -33.943,-7.201 -44.413,-21.605c-10.47,-14.404 -18.745,-52.866 -24.825,-115.389c-6.304,-62.735 -19.589,-94.103 -39.853,-94.103Z" style="fill-rule:nonzero;"/><path d="M2372.89,381.95c-4.729,0 -8.331,-4.801 -10.808,-14.403c-0.901,-2.988 -2.139,-6.295 -3.715,-9.923c-6.08,-13.87 -9.119,-25.926 -9.119,-36.169c0,-8.535 5.347,-17.231 16.042,-26.086c10.696,-8.856 22.573,-13.284 35.632,-13.284c6.53,0 13.848,2.401 21.954,7.202c8.105,4.801 12.158,9.443 12.158,13.924c0,7.041 -2.758,18.991 -8.274,35.849c-5.517,16.857 -14.298,28.22 -26.344,34.088c-12.046,5.868 -21.222,8.802 -27.526,8.802Zm-44.245,357.529c0,16.218 2.364,34.462 7.093,54.734c0.9,3.841 1.351,7.042 1.351,9.602c0,3.841 -3.715,8.803 -11.146,14.884c-7.43,6.082 -15.311,9.122 -23.642,9.122c-21.841,0 -32.761,-18.991 -32.761,-56.974c0,-39.263 8.556,-101.358 25.669,-186.286c5.854,-29.661 8.781,-47.905 8.781,-54.734c0,-13.443 2.589,-24.913 7.768,-34.408c5.179,-9.496 12.497,-14.244 21.953,-14.244c11.484,0 20.546,2.614 27.189,7.842c6.642,5.228 9.963,11.043 9.963,17.444c0,6.402 -1.576,14.831 -4.728,25.287c-16.887,56.334 -27.357,96.664 -31.41,120.99c-4.053,24.326 -6.08,53.24 -6.08,86.741Z" style="fill-rule:nonzero;"/><path d="M2650.22,694.028c-31.523,40.117 -62.708,70.204 -93.555,90.263c-30.848,20.058 -59.105,30.087 -84.774,30.087c-17.338,0 -32.311,-6.935 -44.92,-20.805c-12.609,-13.87 -18.914,-31.688 -18.914,-53.453c0,-56.121 26.457,-116.563 79.37,-181.326c52.913,-64.762 105.489,-97.144 157.726,-97.144c18.914,0 32.987,10.243 42.218,30.728c2.927,6.828 7.543,10.242 13.848,10.242c18.013,0 27.019,6.615 27.019,19.845c0,6.615 -1.125,15.684 -3.377,27.207c-12.159,62.949 -18.238,107.334 -18.238,133.153c0,51.64 10.357,82.581 31.072,92.823c9.907,5.122 14.861,11.417 14.861,18.885c0,6.615 -4.841,13.283 -14.523,20.005c-9.682,6.722 -19.026,10.083 -28.033,10.083c-17.337,0 -31.635,-11.31 -42.893,-33.929c-11.258,-22.619 -16.887,-54.84 -16.887,-96.664Zm-20.603,-180.205c-29.721,0 -64.284,26.407 -103.687,79.22c-39.403,52.813 -59.105,96.611 -59.105,131.393c0,24.539 8.556,36.809 25.668,36.809c24.768,0 59.105,-23.686 103.012,-71.058c43.907,-47.372 65.86,-90.903 65.86,-130.592c0,-30.515 -10.583,-45.772 -31.748,-45.772Z" style="fill-rule:nonzero;"/></svg>