<?xml version="1.0" encoding="UTF-8" standalone="no"?>
<!DOCTYPE svg PUBLIC "-//W3C//DTD SVG 1.1//EN" "http://www.w3.org/Graphics/SVG/1.1/DTD/svg11.dtd">
<svg width="549px" height="590px" version="1.1" xmlns="http://www.w3.org/2000/svg" xmlns:xlink="http://www.w3.org/1999/xlink" xml:space="preserve" xmlns:serif="http://www.serif.com/" style="fill-rule:evenodd;clip-rule:evenodd;stroke-linejoin:round;stroke-miterlimit:2;">
    <g id="Artboard1" transform="matrix(0.760456,0,0,0.88843,45.2192,62.084)">
        <rect x="-59.463" y="-69.881" width="721.63" height="664.009" style="fill:none;"/>
        <g transform="matrix(0.744107,0,0,0.636922,-2.70844,-121.099)">
            <path d="M380.504,792.823L382.695,782.039C382.695,782.039 403.427,680.275 333.993,600.016C289.037,548.052 205.604,504.104 50.995,506.15C32.077,506.4 12.068,507.336 -9.088,509.031L-28.125,510.556L-21.88,528.604C-16.193,545.038 -10.38,560.489 -4.446,575.011C33.464,667.834 76.568,723.21 123.973,755.721C195.224,804.585 276.996,802.242 369.545,793.82L380.504,792.823ZM419.487,792.823L430.446,793.82C522.995,802.242 604.767,804.585 676.018,755.721C723.422,723.21 766.527,667.834 804.437,575.009C810.37,560.49 816.183,545.039 821.87,528.605L828.117,510.556L809.079,509.031C787.923,507.336 767.913,506.4 748.996,506.15C594.387,504.104 510.954,548.052 465.998,600.016C396.564,680.275 417.296,782.039 417.296,782.039L419.487,792.823ZM661.458,729.811C593.769,748.106 520.249,745.775 489.067,743.612C479.544,752.751 471.591,760.719 465.435,767.056C537.479,772.377 602.177,770.506 659.294,731.335L661.458,729.811ZM138.526,729.807L140.697,731.335C197.82,770.511 262.526,772.377 334.566,767.056C328.406,760.729 320.457,752.758 310.934,743.612C279.755,745.772 206.235,748.106 138.526,729.807ZM488.532,619.172L488.361,619.363C451.762,661.667 444.193,710.894 443.839,742.735C451.544,734.918 461.622,724.967 473.729,713.609C474.055,697.592 475.569,671.271 481.335,644.854C483.229,636.177 485.595,627.505 488.532,619.172ZM311.46,619.173C314.396,627.505 316.763,636.177 318.656,644.854C324.421,671.267 325.936,697.583 326.262,713.6C338.369,724.962 348.445,734.909 356.152,742.725C355.796,710.881 348.224,661.662 311.63,619.363L311.46,619.173ZM74.91,663.319C85.78,679.114 96.992,692.708 108.565,704.362C173.713,731.255 254.46,731.863 296.365,729.861C282.413,716.943 266.092,702.493 247.853,687.519C215.324,688.538 138.781,687.784 74.91,663.319ZM725.076,663.324C661.21,687.784 584.67,688.54 552.148,687.519C533.916,702.511 517.597,716.952 503.636,729.861C545.55,731.862 626.283,731.256 691.419,704.369C702.989,692.715 714.201,679.125 725.076,663.324ZM560.428,567.223C544.865,574.239 531.308,582.189 519.521,590.827C507.424,605.919 500.178,627.034 495.609,647.969C491.557,666.536 489.699,685.053 488.885,699.647C503.568,686.338 520.452,671.712 539.119,656.66C539.061,643.166 540.158,622.352 545.829,601.471C549.043,589.637 553.729,577.822 560.428,567.223ZM239.577,567.229C246.274,577.827 250.958,589.64 254.172,601.471C259.843,622.352 260.94,643.166 260.882,656.661C279.543,671.705 296.425,686.323 311.106,699.638C310.291,685.045 308.434,666.532 304.383,647.969C299.813,627.034 292.567,605.919 280.47,590.827C268.68,582.197 255.131,574.24 239.577,567.229ZM758.594,605.177C702.575,638.796 634.961,637.448 619.591,636.633C602.034,648.659 585.374,661.031 569.842,673.25C611.013,673.312 683.475,668.896 739.181,641.247C745.784,630.153 752.257,618.152 758.594,605.177ZM41.396,605.176C47.739,618.143 54.207,630.142 60.804,641.239C116.513,668.892 188.984,673.311 230.158,673.25C214.63,661.03 197.966,648.652 180.409,636.633C165.058,637.445 97.423,638.804 41.396,605.176ZM155.128,542.716C160.139,548.517 164.68,555.004 168.705,561.687C177.867,576.903 184.424,592.966 188.11,603.085C208.614,616.725 228.033,630.893 246.034,644.896C245.481,633.472 243.903,619.403 240.073,605.301C235.042,586.778 226.147,568.065 210.002,555.836C193.562,550.491 175.333,546.049 155.128,542.716ZM644.876,542.714C624.671,546.05 606.441,550.485 590.007,555.831C573.856,568.061 564.96,586.776 559.928,605.301C556.098,619.403 554.52,633.472 553.967,644.896C571.97,630.89 591.388,616.717 611.891,603.084C615.577,592.966 622.134,576.903 631.297,561.687C635.321,555.004 639.862,548.517 644.876,542.714ZM19.629,555.543L22.928,563.829C24.994,568.887 27.074,573.827 29.175,578.658C71.093,614.107 127.381,621.279 158.723,622.269C115.794,594.798 68.399,570.363 19.629,555.543ZM780.36,555.547C731.598,570.379 684.211,594.804 641.278,622.268C672.62,621.278 728.9,614.107 770.814,578.661C772.91,573.842 774.994,568.894 777.063,563.827L780.36,555.547ZM409.356,621.03L416.317,612.507C475.101,540.533 522.816,474.084 522.21,387.688C521.807,330.207 500.05,263.49 444.354,180.114C435.644,167.073 426.096,153.609 415.659,139.698L404.201,124.427L392.283,139.341C379.033,155.92 367.054,171.976 356.258,187.504C268.017,314.481 257.731,408.218 275.625,474.56C303.263,577.024 399.193,616.809 399.193,616.809L409.356,621.03ZM61.414,535.672C98.035,549.9 133.537,568.645 166.682,589.287C163.754,582.87 160.244,575.958 156.189,569.224C149.015,557.311 140.213,545.797 129.628,539.23C108.807,536.894 86.122,535.652 61.414,535.672ZM738.586,535.672C713.878,535.668 691.194,536.904 670.377,539.228C659.791,545.795 650.987,557.309 643.813,569.224C639.759,575.956 636.25,582.865 633.32,589.286C666.447,568.659 701.958,549.904 738.586,535.672ZM304.11,466.6L304.175,466.859C318.741,520.861 355.287,554.688 381.473,572.807C379.31,562.048 376.708,548.133 374.072,531.728C360.984,522.494 340.028,506.508 321.37,486.949C315.237,480.52 309.374,473.702 304.11,466.6ZM492.59,385.254C469.854,451.59 426.761,511.213 407.522,535.832C409.763,548.839 411.914,559.891 413.719,568.54C458.453,511.824 493.127,457.161 492.641,387.896L492.59,385.254ZM473.112,295.32C457.629,361.943 415.398,425.798 396.354,452.162C398.571,475.662 401.402,497.268 404.282,516.061C429.393,482.464 474.092,415.218 488.281,346.188C485.101,330.074 480.115,313.174 473.112,295.32ZM301.308,377.964C298.412,394.779 297.411,410.458 297.971,425.057C303.708,443.534 317.15,461.359 331.942,476.864C345.054,490.61 359.352,502.511 370.986,511.354C368.178,491.74 365.511,469.566 363.49,445.682C352.276,438.175 335.643,425.616 321.516,409.229C313.509,399.942 306.341,389.446 301.308,377.964ZM443.691,234.993C440.191,300.241 401.218,355.52 391.943,367.795C392.081,389.08 393.008,409.814 394.435,429.513C417.538,395.428 454.442,332.912 462.713,271.271C457.216,259.59 450.897,247.509 443.691,234.993ZM328.274,294.25C319.725,312.869 313.193,330.466 308.422,347.085C309.52,367.307 320.048,385.152 332.581,399.69C342.123,410.757 352.897,419.94 362.053,426.793C360.525,404.035 359.652,380.012 359.833,355.382C353.512,346.664 343.874,332.241 336.397,316.134C333.11,309.054 330.276,301.656 328.274,294.25ZM414.751,189.174C399.745,237.885 393.457,290.826 392.18,341.782C408.899,315.264 434.469,264.607 428.56,210.024C425.739,205.586 422.804,201.089 419.764,196.538L414.751,189.174ZM374.9,212.646C361.065,233.121 349.39,252.612 339.668,271.154C339.173,283.608 343.788,297.359 349.649,309.982C352.957,317.109 356.718,323.884 360.395,329.901C361.847,290.906 366.185,250.979 374.9,212.646Z"/>
        </g>
        <g transform="matrix(1.19095,0,0,1.0194,-12.7147,167.793)">
            <g transform="matrix(0.187694,0,0,0.187694,-1.73153e-14,215.879)">
                <path d="M320.856,694.668C318.154,692.748 310.611,698.723 298.228,712.593C277.738,735.425 251.563,755.697 219.702,773.408C187.842,791.119 158.289,799.975 131.044,799.975C110.78,799.975 94.906,793.946 83.423,781.89C71.939,769.834 66.198,753.136 66.198,731.798C66.198,698.723 79.37,661.86 105.714,621.21C132.058,580.56 168.928,545.084 216.325,514.783C263.721,484.483 305.208,469.332 340.783,469.332C359.472,469.332 375.909,474.453 390.094,484.696C393.471,487.257 396.398,489.39 398.875,491.098C402.928,493.872 406.756,499.473 410.358,507.902C413.961,516.33 415.762,523.106 415.762,528.227C415.762,531.428 414.524,536.335 412.047,542.95C398.312,578.373 388.968,607.713 384.014,630.972C379.061,654.232 373.657,693.388 367.803,748.442C362.399,797.947 356.545,836.037 350.24,862.71C343.936,889.383 332.565,915.203 316.128,940.169C299.691,965.136 279.989,983.86 257.023,996.344C234.056,1008.83 210.414,1015.07 186.097,1015.07C143.991,1015.07 102.449,1001.31 61.469,973.778C20.49,946.251 0,924.166 0,907.521C0,897.065 4.166,891.837 12.497,891.837C16.549,891.837 28.596,898.132 48.635,910.722C101.548,944.224 149.17,960.975 191.501,960.975C228.427,960.975 256.516,942.303 275.768,904.961C295.019,867.618 308.135,811.817 315.115,737.559C316.691,720.701 318.605,706.405 320.856,694.668ZM320.181,518.944C301.042,518.944 277.119,528.333 248.41,547.111C219.702,565.89 191.838,593.416 164.819,629.692C137.799,665.968 124.29,696.375 124.29,720.915C124.29,729.237 127.048,735.799 132.564,740.6C138.081,745.401 144.216,747.802 150.971,747.802C171.011,747.802 197.186,737.986 229.497,718.354C261.808,698.723 289.615,671.462 312.919,636.574C336.224,601.685 347.876,574.318 347.876,554.473C347.876,530.787 338.644,518.944 320.181,518.944Z" style="fill-rule:nonzero;"/>
            </g>
            <g transform="matrix(0.187694,0,0,0.187694,-1.73153e-14,215.879)">
                <path d="M665.395,694.028C633.873,734.145 602.688,764.232 571.84,784.291C540.993,804.349 512.735,814.378 487.067,814.378C469.729,814.378 454.756,807.443 442.147,793.573C429.538,779.703 423.233,761.885 423.233,740.12C423.233,683.999 449.69,623.557 502.603,558.794C555.516,494.032 608.092,461.65 660.329,461.65C679.243,461.65 693.315,471.893 702.547,492.378C705.474,499.206 710.09,502.62 716.395,502.62C734.408,502.62 743.414,509.235 743.414,522.465C743.414,529.08 742.288,538.149 740.037,549.672C727.878,612.621 721.798,657.006 721.798,682.825C721.798,734.465 732.156,765.406 752.871,775.648C762.778,780.77 767.732,787.065 767.732,794.533C767.732,801.148 762.891,807.816 753.209,814.538C743.527,821.26 734.182,824.621 725.176,824.621C707.838,824.621 693.541,813.311 682.282,790.692C671.024,768.073 665.395,735.852 665.395,694.028ZM644.793,513.823C615.072,513.823 580.509,540.23 541.106,593.043C501.702,645.856 482.001,689.654 482.001,724.436C482.001,748.975 490.557,761.245 507.669,761.245C532.437,761.245 566.774,737.559 610.681,690.187C654.588,642.815 676.541,599.284 676.541,559.595C676.541,529.08 665.958,513.823 644.793,513.823Z" style="fill-rule:nonzero;"/>
            </g>
            <g transform="matrix(0.187694,0,0,0.187694,-1.73153e-14,215.879)">
                <path d="M870.446,683.465C872.698,679.625 875.4,674.29 878.552,667.461C893.863,634.173 907.936,608.087 920.77,589.202C933.604,570.317 947.733,552.233 963.157,534.948C978.58,517.664 992.653,504.541 1005.38,495.579C1018.1,486.616 1029.64,480.375 1039.99,476.854C1050.35,473.333 1060.37,471.573 1070.05,471.573C1089.64,471.573 1105.63,477.174 1118.01,488.377C1130.4,499.58 1136.59,512.65 1136.59,527.587C1136.59,534.202 1134.39,540.176 1130,545.511C1125.61,550.846 1118.91,553.513 1109.91,553.513C1100.45,553.513 1091.78,549.565 1083.9,541.67C1075.79,533.775 1067.35,529.827 1058.57,529.827C1035.15,529.827 1002.73,556.714 961.299,610.487C919.869,664.261 894.651,723.475 885.645,788.132C883.393,804.776 879.115,815.765 872.81,821.1C866.506,826.434 857.612,829.102 846.129,829.102C835.096,829.102 827.102,821.313 822.149,805.736C817.195,790.159 814.718,763.912 814.718,726.996C814.718,716.967 815.281,694.882 816.407,660.74C817.758,620.41 820.46,587.868 824.513,563.115C825.189,559.061 826.314,549.565 827.89,534.628C829.467,518.198 831.437,506.781 833.801,500.38C836.165,493.978 841.006,488.003 848.324,482.455C855.642,476.907 863.579,474.133 872.135,474.133C880.466,474.133 886.714,476.641 890.88,481.655C895.045,486.67 897.128,492.058 897.128,497.819C897.128,506.141 894.876,517.878 890.373,533.028C885.194,549.886 882.155,561.515 881.254,567.917C880.578,575.172 879.34,582.747 877.539,590.642C875.287,599.818 873.036,623.931 870.784,662.98L870.446,674.823L870.446,683.465Z" style="fill-rule:nonzero;"/>
            </g>
            <g transform="matrix(0.187694,0,0,0.187694,-1.73153e-14,215.879)">
                <path d="M1355.15,678.024C1324.98,723.902 1293.01,759.271 1259.23,784.131C1225.46,808.99 1194.38,821.42 1166.01,821.42C1144.17,821.42 1126.89,813.471 1114.17,797.574C1101.45,781.677 1095.09,760.498 1095.09,734.038C1095.09,680.051 1118.22,624.677 1164.49,567.917C1210.76,511.156 1260.69,482.775 1314.28,482.775C1337.7,482.775 1359.43,492.271 1379.47,511.263L1426.75,301.93C1430.13,287.633 1436.38,278.031 1445.5,273.123C1454.62,268.215 1461.76,265.761 1466.94,265.761C1482.7,265.761 1490.59,278.991 1490.59,305.451C1490.59,310.146 1485.41,327.643 1475.05,357.944C1458.61,404.889 1443.02,462.557 1428.27,530.947C1413.52,599.338 1406.15,654.232 1406.15,695.629C1406.15,738.306 1415.94,759.644 1435.53,759.644C1448.14,759.644 1461.2,755.697 1474.71,747.802C1480.34,743.961 1485.63,742.04 1490.59,742.04C1497.79,742.04 1501.39,746.521 1501.39,755.483C1501.39,766.366 1491.32,778.956 1471.16,793.253C1451.01,807.55 1430.35,814.698 1409.19,814.698C1372.04,814.698 1353.46,780.77 1353.46,712.913C1353.46,701.39 1354.02,689.76 1355.15,678.024ZM1310.9,528.227C1274.43,528.227 1238.29,551.646 1202.49,598.484C1166.69,645.323 1148.79,688.587 1148.79,728.277C1148.79,754.95 1158.13,768.287 1176.82,768.287C1194.38,768.287 1215.72,759.538 1240.82,742.04C1265.93,724.542 1291.77,696.642 1318.34,658.339C1344.9,620.036 1358.19,591.283 1358.19,572.078C1358.19,562.689 1353.63,553.033 1344.51,543.11C1335.39,533.188 1324.19,528.227 1310.9,528.227Z" style="fill-rule:nonzero;"/>
            </g>
            <g transform="matrix(0.187694,0,0,0.187694,-1.73153e-14,215.879)">
                <path d="M1817.9,702.03C1817.9,723.796 1797.58,750.042 1756.94,780.77C1716.3,811.497 1674.36,826.861 1631.13,826.861C1594.88,826.861 1566.9,816.725 1547.2,796.454C1527.5,776.182 1517.65,747.908 1517.65,711.633C1517.65,650.604 1539.37,592.563 1582.83,537.509C1626.29,482.455 1673.8,454.929 1725.36,454.929C1742.25,454.929 1756.04,460.156 1766.73,470.612C1777.43,481.068 1782.78,493.658 1782.78,508.382C1782.78,541.243 1765.78,572.718 1731.78,602.805C1697.78,632.893 1652.29,662.447 1595.33,691.467C1583.62,697.229 1577.76,704.697 1577.76,713.873C1577.76,731.584 1583.17,745.774 1593.98,756.444C1604.78,767.113 1620.77,772.448 1641.94,772.448C1690.35,772.448 1739.77,747.055 1790.2,696.269C1797.63,689.227 1803.26,685.706 1807.09,685.706C1814.3,685.706 1817.9,691.147 1817.9,702.03ZM1583.17,652.098C1678.64,598.324 1726.37,555.113 1726.37,522.465C1726.37,509.662 1720.29,503.261 1708.13,503.261C1687.42,503.261 1664.06,517.664 1638.05,546.471C1612.05,575.279 1593.75,610.487 1583.17,652.098Z" style="fill-rule:nonzero;"/>
            </g>
            <g transform="matrix(0.187694,0,0,0.187694,-1.73153e-14,215.879)">
                <path d="M2076.99,564.396C2065.28,564.396 2052.5,571.651 2038.66,586.161C2024.81,600.672 2003.7,633.213 1975.33,683.786C1937.95,751.642 1913.8,790.265 1902.88,799.654C1891.96,809.043 1882.9,813.738 1875.69,813.738C1849.13,813.738 1835.84,801.575 1835.84,777.249C1835.84,767.006 1837.64,752.496 1841.25,733.718C1853.63,669.275 1859.82,601.312 1859.82,529.827C1859.82,521.718 1863.48,512.703 1870.8,502.78C1878.12,492.858 1885.04,487.897 1891.57,487.897C1903.28,487.897 1911.61,491.311 1916.56,498.139C1921.52,504.968 1923.99,518.731 1923.99,539.43C1923.99,560.982 1917.24,605.366 1903.73,672.583C1899.22,694.775 1896.97,708.858 1896.97,714.833C1896.97,718.247 1897.87,719.955 1899.67,719.955C1903.05,719.955 1918.7,694.455 1946.62,643.456C1974.77,591.603 1999.42,555.113 2020.59,533.988C2041.75,512.863 2065.06,502.3 2090.5,502.3C2110.76,502.3 2127.26,511.049 2139.98,528.547C2152.7,546.045 2161.99,577.946 2167.84,624.251C2174.15,676.957 2179.83,709.765 2184.9,722.675C2189.97,735.585 2198.01,742.04 2209.05,742.04C2216.03,742.04 2224.81,739.693 2235.39,734.998C2237.19,734.145 2238.54,733.718 2239.44,733.718C2249.13,733.718 2253.97,739.053 2253.97,749.722C2253.97,759.111 2247.33,769.087 2234.04,779.649C2220.76,790.212 2204.77,795.493 2186.08,795.493C2166.94,795.493 2152.14,788.292 2141.67,773.888C2131.2,759.484 2122.92,721.022 2116.84,658.499C2110.54,595.764 2097.25,564.396 2076.99,564.396Z" style="fill-rule:nonzero;"/>
            </g>
            <g transform="matrix(0.187694,0,0,0.187694,-1.73153e-14,215.879)">
                <path d="M2372.89,381.95C2368.16,381.95 2364.56,377.149 2362.08,367.547C2361.18,364.559 2359.94,361.252 2358.37,357.624C2352.29,343.754 2349.25,331.698 2349.25,321.455C2349.25,312.92 2354.6,304.224 2365.29,295.369C2375.99,286.513 2387.86,282.085 2400.92,282.085C2407.45,282.085 2414.77,284.486 2422.88,289.287C2430.98,294.088 2435.03,298.73 2435.03,303.211C2435.03,310.252 2432.28,322.202 2426.76,339.06C2421.24,355.917 2412.46,367.28 2400.42,373.148C2388.37,379.016 2379.19,381.95 2372.89,381.95ZM2328.64,739.479C2328.64,755.697 2331.01,773.941 2335.74,794.213C2336.64,798.054 2337.09,801.255 2337.09,803.815C2337.09,807.656 2333.37,812.618 2325.94,818.699C2318.51,824.781 2310.63,827.821 2302.3,827.821C2280.46,827.821 2269.54,808.83 2269.54,770.847C2269.54,731.584 2278.1,669.489 2295.21,584.561C2301.06,554.9 2303.99,536.656 2303.99,529.827C2303.99,516.384 2306.58,504.914 2311.76,495.419C2316.94,485.923 2324.26,481.175 2333.71,481.175C2345.2,481.175 2354.26,483.789 2360.9,489.017C2367.54,494.245 2370.86,500.06 2370.86,506.461C2370.86,512.863 2369.29,521.292 2366.14,531.748C2349.25,588.082 2338.78,628.412 2334.72,652.738C2330.67,677.064 2328.64,705.978 2328.64,739.479Z" style="fill-rule:nonzero;"/>
            </g>
            <g transform="matrix(0.187694,0,0,0.187694,-1.73153e-14,215.879)">
                <path d="M2650.22,694.028C2618.7,734.145 2587.51,764.232 2556.66,784.291C2525.82,804.349 2497.56,814.378 2471.89,814.378C2454.55,814.378 2439.58,807.443 2426.97,793.573C2414.36,779.703 2408.06,761.885 2408.06,740.12C2408.06,683.999 2434.51,623.557 2487.43,558.794C2540.34,494.032 2592.92,461.65 2645.15,461.65C2664.07,461.65 2678.14,471.893 2687.37,492.378C2690.3,499.206 2694.91,502.62 2701.22,502.62C2719.23,502.62 2728.24,509.235 2728.24,522.465C2728.24,529.08 2727.11,538.149 2724.86,549.672C2712.7,612.621 2706.62,657.006 2706.62,682.825C2706.62,734.465 2716.98,765.406 2737.7,775.648C2747.6,780.77 2752.56,787.065 2752.56,794.533C2752.56,801.148 2747.72,807.816 2738.03,814.538C2728.35,821.26 2719.01,824.621 2710,824.621C2692.66,824.621 2678.37,813.311 2667.11,790.692C2655.85,768.073 2650.22,735.852 2650.22,694.028ZM2629.62,513.823C2599.9,513.823 2565.33,540.23 2525.93,593.043C2486.53,645.856 2466.83,689.654 2466.83,724.436C2466.83,748.975 2475.38,761.245 2492.49,761.245C2517.26,761.245 2551.6,737.559 2595.51,690.187C2639.41,642.815 2661.37,599.284 2661.37,559.595C2661.37,529.08 2650.78,513.823 2629.62,513.823Z" style="fill-rule:nonzero;"/>
            </g>
        </g>
    </g>
</svg>
